<svg xmlns="http://www.w3.org/2000/svg" viewBox="0 0 1194.53 392.45"><defs><style>.cls-1,.cls-2{fill:#ababab;}.cls-1{fill-rule:evenodd;}</style></defs><title>citrus</title><g id="Layer_2" data-name="Layer 2"><g id="_1" data-name="1"><path class="cls-1" d="M145.9,88.86c2.77-54,49.76-82.47,134.85-88.86C250.27,65.88,210.59,108.74,145.9,88.86Z"/><circle class="cls-2" cx="144.87" cy="247.59" r="144.87" transform="translate(-132.64 174.95) rotate(-45)"/><path class="cls-1" d="M483.15,336.76q-17.46,10.11-50.41,10.08-38.52,0-62.33-23.34t-23.84-60.21q0-42.62,25.51-67.12t68.35-24.57q29.49,0,42.72,7.8v43.78a58.58,58.58,0,0,0-36-12.08c-14.82,0-26.51,4.29-35.2,13s-13,20.55-13,35.81c0,14.76,4.18,26.41,12.42,34.82s19.66,12.64,34.09,12.64c12.87,0,25.4-4,37.71-12.09v41.5Zm85.34,6H517V175.67h51.53V342.78Zm144.43-1.95q-11.45,6-34.42,6-54.48,0-54.53-56.59V213.72H596.89V175.67H624v-36l51.41-14.7v50.74h37.54v38.05H675.38v67.56q0,26.07,20.72,26.07a34.65,34.65,0,0,0,16.82-4.73v38.21ZM851,222.18c-6.24-3.4-13.48-5.07-21.72-5.07q-16.8,0-26.3,12.31c-6.29,8.25-9.47,19.39-9.47,33.54v79.82H742V175.67h51.52v31h.67q12.28-34,44.06-34c5.46,0,9.7.67,12.76,1.95v47.51Zm182.76,120.6H982.36V317.32h-.78q-19.14,29.49-51.08,29.52-58.15,0-58.1-70.35V175.67h51.41v96.25q0,35.43,28.08,35.43c9.24,0,16.6-3.23,22.17-9.69s8.3-15.26,8.3-26.35V175.67h51.41V342.78Zm32.47-4.4V296.6a111.22,111.22,0,0,0,25.4,11.42,83.62,83.62,0,0,0,23.9,3.73c9.14,0,16.38-1.22,21.61-3.73s7.91-6.3,7.91-11.42a10.57,10.57,0,0,0-3.56-8.19,32.94,32.94,0,0,0-9.25-5.68,102.37,102.37,0,0,0-12.31-4.4c-4.46-1.34-8.74-2.79-12.87-4.4a130.38,130.38,0,0,1-17.54-8.08,50.83,50.83,0,0,1-12.76-10.08,39.42,39.42,0,0,1-7.8-13.2,53,53,0,0,1-2.73-17.77c0-9.36,2.06-17.44,6.13-24.18a49.9,49.9,0,0,1,16.32-16.54,74.88,74.88,0,0,1,23.34-9.47,122.47,122.47,0,0,1,27.35-3,147.85,147.85,0,0,1,22.5,1.73,163.85,163.85,0,0,1,22.56,5v39.83a80,80,0,0,0-21-8.58,88.58,88.58,0,0,0-21.94-2.84,46.41,46.41,0,0,0-9.53.89,28.74,28.74,0,0,0-8,2.62,13.48,13.48,0,0,0-5.35,4.4,9.89,9.89,0,0,0-2,6.12,11.28,11.28,0,0,0,2.9,7.8,25.7,25.7,0,0,0,7.68,5.63,70.66,70.66,0,0,0,10.53,4.23l11.53,3.84a150.55,150.55,0,0,1,18.61,7.86,59.36,59.36,0,0,1,14.26,10,39,39,0,0,1,9.13,13.37,47.55,47.55,0,0,1,3.18,18.27c0,9.91-2.12,18.38-6.47,25.4a51.12,51.12,0,0,1-17.1,17.1,78,78,0,0,1-24.67,9.64,137.32,137.32,0,0,1-29,3A150.44,150.44,0,0,1,1066.24,338.38Z"/></g></g></svg>