<?xml version="1.0" encoding="UTF-8"?>
<!DOCTYPE svg PUBLIC "-//W3C//DTD SVG 1.1//EN" "http://www.w3.org/Graphics/SVG/1.1/DTD/svg11.dtd">
<!-- Creator: CorelDRAW X8 -->
<svg xmlns="http://www.w3.org/2000/svg" xml:space="preserve" width="22px" height="22px" version="1.1" style="shape-rendering:geometricPrecision; text-rendering:geometricPrecision; image-rendering:optimizeQuality; fill-rule:evenodd; clip-rule:evenodd"
viewBox="0 0 421 420"
 xmlns:xlink="http://www.w3.org/1999/xlink">
 <defs>
  <style type="text/css">
   <![CDATA[
    .fil0 {fill:#EF4735}
   ]]>
  </style>
 </defs>
 <g id="Слой_x0020_1">
  <metadata id="CorelCorpID_0Corel-Layer"/>
  <path class="fil0" d="M87 381c2,-2 2,-1 3,-4 3,-10 6,-37 6,-47 1,-57 -16,-73 -9,-106 7,-28 8,-17 9,-51 3,-55 22,-43 27,-61 2,-8 -3,-18 -2,-28 4,-25 45,-44 50,-24 5,22 -36,41 -11,60 35,27 23,63 45,74 14,7 37,6 51,0 16,-6 28,-15 21,-34 -8,-21 15,-49 36,-47 10,0 14,8 10,17 -3,10 -21,33 -13,41 12,3 31,-14 36,-20 15,-14 16,-28 27,-29 12,-2 18,14 2,34 -12,16 -46,48 -48,64 -5,40 32,124 45,125 1,-3 2,-3 3,-5l13 -18c18,-31 25,-49 31,-89 1,-8 2,-16 2,-24l0 -1c-1,-32 -9,-64 -22,-91 -12,-23 -17,-29 -33,-48 -12,-14 -28,-26 -43,-36 -4,-3 -8,-5 -13,-8 -22,-13 -54,-23 -89,-25l-22 0c-8,0 -15,1 -23,2 -18,3 -30,7 -46,13 -3,1 -4,2 -7,3 -3,2 -5,2 -7,4 -8,4 -17,9 -25,14 -14,10 -17,15 -27,23 -24,20 -49,64 -57,94 -3,15 -6,29 -7,43l0 27c0,6 1,13 2,20 5,33 17,59 34,86 5,7 21,26 28,33l23 19zm126 39c3,-1 16,-1 20,-1 7,-1 13,-2 19,-3 26,-4 25,-21 23,-43 -2,-21 -11,-99 -17,-116 -6,-17 -18,-27 -38,-30 -25,-5 -33,5 -37,27 -5,23 -4,105 -1,129 3,22 7,37 31,37zm108 -31c1,-2 5,-4 7,-5 3,-2 6,-4 9,-6 5,-8 5,-10 2,-22 -2,-7 -5,-13 -8,-19 -4,-8 -16,-32 -25,-28 -12,5 -5,55 0,71 4,12 3,12 15,9zm-189 16c3,1 5,3 9,4 11,-4 6,-45 6,-55 -2,-13 -4,-45 -13,-50 -10,0 -11,43 -11,50 0,17 1,39 9,51z"/>
 </g>
</svg>
