<svg xmlns="http://www.w3.org/2000/svg" viewBox="0 0 13.55 13.52"><defs><style>.cls-1{fill:#fff;}.cls-2{fill:#ef4735;}</style></defs><title>kaspi-logo</title><g id="Layer_2" data-name="Layer 2"><g id="Layer_1-2" data-name="Layer 1"><path class="cls-1" d="M10.53,7.08c.06-.51,1.16-1.54,1.54-2.06s.32-1.16-.06-1.09-.39.48-.87.93c-.16.19-.77.74-1.16.64-.26-.25.32-1,.42-1.32a.35.35,0,0,0-.32-.54A1.23,1.23,0,0,0,8.92,5.15c.22.61-.16.9-.68,1.1a2.26,2.26,0,0,1-1.64,0c-.71-.36-.32-1.52-1.45-2.39-.8-.61.52-1.22.35-1.93S4,1.9,3.9,2.7c0,.33.12.65.06.91-.16.57-.77.19-.87,2A4,4,0,0,1,2.8,7.21c-.22,1.06.32,1.58.29,3.41a8.77,8.77,0,0,1-.19,1.52c0,.07,0,.08-.07.1A6.4,6.4,0,0,0,4.24,13,3.34,3.34,0,0,1,4,11.4c0-.23,0-1.61.35-1.61.29.16.36,1.19.42,1.61s.15,1.52-.15,1.73a6.42,6.42,0,0,0,2,.35c-.5-.11-.61-.55-.69-1.15a22.11,22.11,0,0,1,0-4.15c.13-.71.39-1,1.19-.87a1.4,1.4,0,0,1,1.23,1A32.34,32.34,0,0,1,8.85,12c.05.54.08,1-.3,1.23a7,7,0,0,0,1.59-.67c-.18,0-.19,0-.29-.34-.16-.51-.39-2.12,0-2.28s.68.64.81.9a3.71,3.71,0,0,1,.25.61c.08.3.09.41,0,.57a8,8,0,0,0,1-.95A6.67,6.67,0,0,1,10.53,7.08Z"/><path class="cls-2" d="M12.84,3.77a6.26,6.26,0,0,0-1.06-1.55A6.64,6.64,0,0,0,10.4,1.06L10,.8A6.62,6.62,0,0,0,7.11,0h-.7a6,6,0,0,0-.74.06A7.78,7.78,0,0,0,4.18.48,1.47,1.47,0,0,1,4,.58c-.1.06-.16.06-.23.13-.25.13-.54.29-.8.45a11.2,11.2,0,0,0-.87.74,6.9,6.9,0,0,0-1.83,3A10.18,10.18,0,0,0,0,6.31v.87a5.09,5.09,0,0,0,.06.64,7,7,0,0,0,1.1,2.77,10.78,10.78,0,0,0,.9,1.06l.74.62,0,0s0,0,.07-.1a8.77,8.77,0,0,0,.19-1.52c0-1.83-.51-2.35-.29-3.41a4,4,0,0,0,.29-1.64c.1-1.77.71-1.39.87-2C4,3.35,3.86,3,3.9,2.7,4,1.9,5.34,1.29,5.5,1.93S4.35,3.25,5.15,3.86c1.13.87.74,2,1.45,2.39a2.26,2.26,0,0,0,1.64,0c.52-.2.9-.49.68-1.1a1.23,1.23,0,0,1,1.16-1.51.35.35,0,0,1,.32.54c-.1.33-.68,1.07-.42,1.32.39.1,1-.45,1.16-.64.48-.45.51-.9.87-.93s.58.45.06,1.09-1.48,1.55-1.54,2.06a6.67,6.67,0,0,0,1.38,4l.07,0c0-.1.06-.1.09-.16l.42-.58a6.72,6.72,0,0,0,1-2.87,6.65,6.65,0,0,0,.06-.77v0A7.35,7.35,0,0,0,12.84,3.77Z"/><path class="cls-2" d="M10.91,11.46a3.71,3.71,0,0,0-.25-.61c-.13-.26-.52-1-.81-.9s-.16,1.77,0,2.28c.1.3.11.37.29.34l.19-.05a.63.63,0,0,1,.23-.16l.29-.19.08-.14C11,11.87,11,11.76,10.91,11.46Z"/><path class="cls-2" d="M8.85,12a32.34,32.34,0,0,0-.54-3.74,1.4,1.4,0,0,0-1.23-1c-.8-.16-1.06.16-1.19.87a22.11,22.11,0,0,0,0,4.15c.08.6.19,1,.69,1.15a1,1,0,0,0,.31,0,4.29,4.29,0,0,1,.64,0l.61-.1a1.13,1.13,0,0,0,.44-.15C8.93,13,8.9,12.55,8.85,12Z"/><path class="cls-2" d="M4.73,11.4C4.67,11,4.6,10,4.31,9.79,4,9.79,4,11.17,4,11.4A3.34,3.34,0,0,0,4.24,13a0,0,0,0,0,0,0c.1,0,.16.09.29.13l0,0C4.88,12.92,4.73,11.7,4.73,11.4Z"/></g></g></svg>