<svg width="343" height="52" viewBox="0 0 343 52" fill="none" xmlns="http://www.w3.org/2000/svg">
<rect width="343" height="52" rx="8" fill="#F14635"/>
<rect x="226" y="12" width="36" height="28" rx="3" fill="#D5AE6C"/>
<path fill-rule="evenodd" clip-rule="evenodd" d="M243.906 17.8674C246.279 17.8674 248.428 18.8209 249.986 20.3633C251.544 21.9058 252.511 24.0371 252.521 26.3931V26.4303V26.4674C252.512 28.5625 251.744 30.479 250.477 31.9626C250.46 31.954 250.438 31.9384 250.408 31.909C250.359 31.8607 250.29 31.7775 250.196 31.6357C250.118 31.5213 249.74 30.9415 249.381 30.0905C249.023 29.2396 248.684 28.1177 248.684 26.9194C248.684 26.6842 248.853 26.3829 249.097 26.0597C249.341 25.7366 249.659 25.3916 249.958 25.0692L249.969 25.0579C250.189 24.8191 250.402 24.5872 250.581 24.3706C250.762 24.1506 250.907 23.9462 250.985 23.7663C251.084 23.5342 251.099 23.3372 251.062 23.1843C251.024 23.0314 250.935 22.923 250.825 22.8681C250.725 22.8193 250.601 22.8126 250.475 22.865C250.349 22.9172 250.222 23.0283 250.117 23.2152C249.945 23.5174 249.832 23.6966 249.699 23.851C249.565 24.0053 249.412 24.1347 249.161 24.337C248.915 24.5389 248.595 24.7417 248.337 24.828C248.079 24.9145 247.883 24.8845 247.883 24.6214C247.883 24.4792 247.992 24.2471 248.128 23.994C248.177 23.9046 248.228 23.8126 248.279 23.721C248.373 23.5535 248.466 23.3874 248.536 23.2416C248.646 23.0132 248.642 22.8165 248.553 22.6767C248.464 22.537 248.291 22.4544 248.064 22.4544C247.617 22.4544 247.244 22.74 246.984 23.0753C246.724 23.4105 246.575 23.7951 246.575 23.9929C246.575 24.1832 246.619 24.2949 246.665 24.4109L246.671 24.425C246.719 24.5461 246.767 24.6753 246.767 24.9057C246.767 25.1378 246.521 25.4043 246.161 25.6127C245.8 25.8212 245.323 25.9717 244.861 25.9717C244.396 25.9717 244.033 25.9223 243.762 25.8027C243.491 25.6828 243.312 25.4927 243.214 25.2109L243.183 25.1192L243.153 25.0274L243.136 24.9776L243.136 24.9776C243.033 24.6771 242.943 24.4151 242.848 24.1708C242.747 23.913 242.639 23.6747 242.502 23.4312C242.429 23.3023 242.337 23.1932 242.238 23.0967C242.145 23.0057 242.047 22.9259 241.955 22.8512L241.955 22.8512L241.955 22.8512L241.938 22.8378C241.812 22.739 241.715 22.644 241.647 22.5569C241.579 22.4698 241.54 22.3903 241.526 22.3225C241.513 22.2552 241.503 22.1582 241.551 22.0049C241.598 21.8517 241.703 21.642 241.92 21.3497C242.137 21.059 242.26 20.8037 242.302 20.593C242.344 20.382 242.305 20.2156 242.197 20.1022C242.158 20.0621 242.105 20.029 242.04 20.0062C241.975 19.9832 241.899 19.9702 241.813 19.9702C241.661 19.9702 241.48 20.0107 241.282 20.1064C241.084 20.2021 240.87 20.3535 240.652 20.5752C240.314 20.9226 240.241 21.2614 240.252 21.5495C240.259 21.7113 240.292 21.8571 240.32 21.9795C240.341 22.075 240.36 22.1562 240.36 22.2197C240.36 22.3645 240.329 22.478 240.247 22.6045C240.165 22.7308 240.033 22.8702 239.83 23.0671C239.626 23.2649 239.488 23.4486 239.396 23.7533C239.304 24.0581 239.257 24.4837 239.233 25.1652C239.224 25.5165 239.189 25.7932 239.142 26.027C239.095 26.2608 239.037 26.4515 238.981 26.6308C238.934 26.788 238.888 26.9404 238.853 27.1068C238.819 27.2733 238.795 27.4538 238.793 27.6673C238.789 27.9037 238.807 28.0983 238.837 28.2776C238.867 28.4568 238.91 28.621 238.956 28.7969C239 28.9594 239.047 29.1339 239.089 29.3456C239.132 29.5572 239.171 29.8061 239.202 30.1177C239.255 30.6402 239.269 31.1187 239.243 31.5801C239.217 32.0414 239.15 32.4853 239.041 32.9386L239.036 32.9686L239.031 32.9984L239.027 33.0134C239.007 33.0945 238.985 33.1836 238.959 33.2573C238.939 33.3142 238.917 33.3613 238.893 33.3892C238.509 33.1158 238.147 32.8136 237.814 32.4827C236.255 30.9334 235.29 28.7936 235.29 26.4305C235.29 24.0661 236.255 21.9254 237.814 20.3757C239.373 18.826 241.527 17.8674 243.906 17.8674ZM246.599 33.4864C246.599 33.614 246.594 33.7269 246.583 33.8214C246.572 33.9159 246.556 33.9918 246.536 34.0456C246.487 34.1651 246.37 34.2817 246.206 34.3873C246.142 34.428 246.069 34.4666 245.992 34.5039C245.326 34.668 244.63 34.7565 243.913 34.7565C243.861 34.7565 243.809 34.7547 243.758 34.753L243.757 34.753C243.734 34.7522 243.71 34.7514 243.687 34.7508C243.596 34.7251 243.512 34.6947 243.437 34.6583C243.27 34.578 243.143 34.472 243.063 34.3427C242.883 34.0487 242.79 33.5666 242.742 32.9645C242.694 32.3625 242.69 31.6404 242.687 30.8661L242.685 30.645L242.684 30.4237C242.678 29.6425 242.673 28.9151 242.74 28.3226C242.807 27.73 242.947 27.2724 243.23 27.0308C243.34 26.9377 243.474 26.8758 243.632 26.8455C243.791 26.8152 243.975 26.8165 244.187 26.8498C244.994 26.9744 245.431 27.2853 245.683 27.6745C245.934 28.0624 246 28.5283 246.062 28.9658L246.063 28.9705L246.07 29.0193L246.077 29.0679L246.114 29.3152L246.151 29.5624L246.155 29.5896C246.228 30.0616 246.337 30.7735 246.43 31.4948C246.524 32.2301 246.599 32.9753 246.599 33.4864ZM249.311 32.5575C249.351 32.3564 249.125 31.6872 248.819 31.1005C248.514 30.5137 248.129 30.0094 247.853 30.1379C247.642 30.239 247.577 30.8705 247.62 31.5696C247.663 32.2684 247.813 33.0348 248.032 33.4054C248.072 33.4707 248.148 33.4886 248.237 33.4803C248.246 33.4795 248.254 33.478 248.263 33.4765L248.275 33.4744C248.605 33.2826 248.92 33.0698 249.22 32.8377C249.222 32.8329 249.225 32.8282 249.227 32.8236C249.231 32.8167 249.235 32.8097 249.238 32.8019C249.268 32.734 249.292 32.6545 249.311 32.5575ZM241.033 31.0871C241.134 31.6561 241.199 32.3846 241.221 33.0131C241.238 33.5164 241.216 33.8494 241.165 34.066C241.128 34.226 241.075 34.3223 241.013 34.3771C240.847 34.3217 240.684 34.2618 240.523 34.1968C240.479 34.1156 240.438 34.016 240.403 33.8972C240.353 33.7305 240.312 33.5279 240.282 33.2932C240.203 32.6622 240.197 31.874 240.257 31.2406C240.317 30.6073 240.443 30.129 240.624 30.1178C240.793 30.1084 240.931 30.5181 241.033 31.0871Z" fill="#FEFEFE"/>
<rect x="209" y="12" width="1" height="28" fill="white" fill-opacity="0.72"/>
<path fill-rule="evenodd" clip-rule="evenodd" d="M95.0191 12C87.2647 12 81 18.2473 81 25.9041C81 30.5514 83.3302 34.7036 86.8445 37.2178C86.9209 37.1035 86.9973 36.8368 87.0737 36.5702V36.4559C87.4175 34.9703 87.4939 33.5608 87.3411 31.8847C87.2265 30.8562 87.0737 30.2848 86.9209 29.7515C86.7681 29.1801 86.6535 28.6849 86.6535 27.923C86.6535 27.2373 86.8063 26.7421 86.9591 26.2469L86.9591 26.2469C87.1501 25.6755 87.3411 24.9898 87.3793 23.847C87.4557 21.6376 87.6849 21.0662 88.3342 20.4186C88.9836 19.771 89.2128 19.5044 89.2128 19.0473C89.2128 18.9478 89.1839 18.8178 89.1497 18.6637C89.0265 18.1096 88.8343 17.2451 89.6712 16.3807C90.4352 15.6951 91.1228 15.4284 91.6194 15.4284C91.8868 15.4284 92.116 15.5046 92.2306 15.657C92.5744 16.0379 92.498 16.7236 91.7722 17.6759C91.0846 18.6282 91.0846 19.0473 91.1228 19.2758C91.161 19.5044 91.3902 19.8091 91.8104 20.1139C91.867 20.1633 91.9264 20.2128 91.9868 20.2632C92.2524 20.4847 92.5405 20.7249 92.7271 21.0662C93.0899 21.6992 93.3091 22.3083 93.574 23.0446C93.6439 23.2388 93.717 23.4419 93.7967 23.6566L93.9113 23.9613C94.2169 24.8755 95.0955 25.1803 96.5853 25.1803C98.075 25.1803 99.6794 24.1899 99.6794 23.428C99.6794 23.0316 99.5967 22.8208 99.5173 22.6186C99.4441 22.4322 99.3738 22.253 99.3738 21.9424C99.3738 21.2948 100.329 19.4282 101.78 19.4282C102.506 19.4282 102.926 19.9615 102.544 20.7234C102.431 20.9627 102.275 21.2395 102.118 21.5194L102.118 21.5194C101.8 22.0859 101.475 22.6649 101.475 22.9709C101.475 23.8089 102.735 23.1613 103.538 22.5138C104.34 21.8662 104.531 21.6757 105.104 20.6853C105.447 20.0758 105.944 19.9615 106.25 20.1139C106.593 20.3043 106.823 20.8376 106.517 21.5614C106.25 22.1328 105.562 22.8947 104.836 23.6946C104.775 23.7631 104.713 23.832 104.651 23.9012C103.744 24.9111 102.774 25.991 102.774 26.704C102.774 30.5895 104.989 34.0179 105.218 34.3608C105.447 34.7417 105.6 34.856 105.677 34.8941C107.739 32.4942 109 29.3705 109 25.9421V25.8279C109 18.2092 102.735 12 95.0191 12ZM99.3348 38.7811C99.2202 39.0477 98.8764 39.3144 98.418 39.543C97.3102 39.8096 96.1643 39.962 94.9801 40.0001H94.5981C94.1015 39.8477 93.7577 39.6191 93.5667 39.3144C92.9937 38.324 92.9555 36.1527 92.9555 33.6004V32.8766L92.9554 32.5929C92.9541 30.1618 92.9529 28.0852 93.8723 27.315C94.2161 27.0103 94.7509 26.896 95.4385 27.0103C98.1124 27.3912 98.3416 29.0292 98.5326 30.4768L98.5708 30.6291L98.7236 31.4291C98.7428 31.5599 98.7639 31.7022 98.7864 31.8542L98.7865 31.8552C99.0327 33.5175 99.4494 36.3315 99.4494 37.8669C99.4494 38.2859 99.4112 38.5906 99.3348 38.7811ZM89.9387 32.304C90.4735 32.304 90.8173 34.9705 90.8937 37.0275C90.9701 38.4751 90.8173 39.0465 90.5499 39.275C90.4162 39.2179 90.2826 39.1703 90.1489 39.1227L90.1489 39.1227L90.1488 39.1227C90.0151 39.075 89.8814 39.0274 89.7477 38.9703C89.5949 38.6274 89.4421 38.1322 89.3657 37.4846C89.1366 35.4276 89.3657 32.342 89.9387 32.304ZM101.4 32.6092C102.317 32.1902 103.959 35.8852 103.806 36.5328C103.794 36.5836 103.777 36.6344 103.76 36.6852C103.726 36.7868 103.692 36.8883 103.692 36.9899C103.195 37.3709 102.66 37.7137 102.126 38.0185C101.935 38.0565 101.782 38.0185 101.705 37.9042C100.98 36.7233 100.712 32.952 101.4 32.6092Z" fill="white"/>
<path fill-rule="evenodd" clip-rule="evenodd" d="M193 30.8929H188.457L192.885 25.0646V23.3885H185.801L183.953 25.7503H188.958L184.53 31.5405V33.2547H193V30.8929ZM162.393 33.2547H165.511V23.4266H162.393V33.2547ZM155.848 25.5979C156.888 25.5979 157.388 26.474 157.388 28.2263H157.427V28.6073C157.388 30.2834 156.888 31.1214 155.887 31.1214C155.155 31.1214 154.655 30.8167 154.385 30.2834V26.3979C154.616 25.8646 155.117 25.5979 155.848 25.5979ZM159.429 32.0738C160.121 31.1595 160.468 29.9405 160.468 28.4168H160.429V28.2644C160.429 26.7026 160.083 25.4836 159.39 24.5694C158.736 23.6932 157.773 23.2361 156.541 23.2361C155.579 23.2361 154.77 23.6171 154.193 24.3408L154.116 23.4266H151.228V37.4449H154.347V32.4547C154.963 33.1023 155.694 33.4451 156.618 33.4451C157.773 33.4451 158.736 32.988 159.429 32.0738ZM145.954 29.8644C146.223 30.0548 146.377 30.2453 146.377 30.5119C146.377 30.7786 146.3 31.0071 146.069 31.0833C145.838 31.2738 145.53 31.35 145.107 31.35C144.645 31.35 144.298 31.2357 143.99 31.0452C143.682 30.8548 143.528 30.5119 143.528 30.0548H140.641C140.641 30.6262 140.833 31.1595 141.218 31.6928C141.603 32.2261 142.142 32.6452 142.797 32.9499C143.451 33.2547 144.221 33.407 145.068 33.407C146.377 33.407 147.417 33.1404 148.225 32.569C149.034 31.9976 149.419 31.2738 149.419 30.3596C149.419 29.0263 148.687 28.1121 147.186 27.6168C146.724 27.4645 146.185 27.3502 145.607 27.2359C144.991 27.1216 144.568 26.9693 144.298 26.8169C144.029 26.6645 143.875 26.436 143.875 26.1693C143.875 25.9027 143.99 25.6741 144.221 25.4836C144.414 25.2932 144.722 25.217 145.03 25.217C145.877 25.217 146.3 25.5979 146.3 26.3979H149.342C149.342 25.4455 148.957 24.6456 148.148 24.0742C147.378 23.5028 146.3 23.198 144.991 23.198C143.759 23.198 142.797 23.5028 142.027 24.0742C141.295 24.6837 140.91 25.4074 140.91 26.3217C140.91 26.855 141.026 27.3121 141.295 27.693C141.565 28.074 141.95 28.4168 142.45 28.6835C142.951 28.9882 143.605 29.2168 144.375 29.3691C145.145 29.5596 145.684 29.712 145.954 29.8644ZM135.405 31.0452C135.135 31.1976 134.827 31.2738 134.442 31.2738C134.134 31.2738 133.903 31.1595 133.711 31.0452C133.518 30.8548 133.441 30.6262 133.441 30.3596C133.441 29.4072 133.98 28.912 135.058 28.912H135.944V30.4738C135.828 30.7024 135.674 30.8929 135.405 31.0452ZM136.157 32.5777L136.157 32.5777L136.157 32.5777C136.242 32.8661 136.311 33.0987 136.406 33.2547V33.2927H139.486V33.1404C139.216 32.6452 139.062 31.9595 139.062 31.0452V26.5883C139.062 25.5217 138.677 24.6837 137.946 24.0742C137.214 23.4647 136.252 23.1599 134.943 23.1599C133.634 23.1599 132.594 23.4266 131.786 24.0361C130.977 24.6456 130.554 25.4074 130.554 26.3598H133.672C133.672 25.636 134.057 25.2932 134.789 25.2932C135.597 25.2932 135.982 25.7503 135.982 26.6645V27.1978H135.02C133.48 27.1978 132.325 27.5026 131.516 28.0359C130.708 28.6073 130.323 29.4072 130.323 30.4738C130.323 31.35 130.669 32.0357 131.324 32.6071C131.978 33.1785 132.787 33.4451 133.711 33.4451C134.712 33.4451 135.52 33.1023 136.098 32.3785C136.119 32.4475 136.138 32.5139 136.157 32.5777ZM121.699 30.1691L122.816 28.6454L125.895 33.2547H129.745L124.856 25.9788L130.092 19.2363H126.088L121.699 24.9884V19.2363H118.465V33.2547H121.699V30.1691ZM171.133 31.8096C171.133 32.6858 170.401 33.4096 169.516 33.4096C168.592 33.4096 167.86 32.6858 167.86 31.8096C167.86 30.8954 168.63 30.2097 169.516 30.2097C170.401 30.2097 171.133 30.9335 171.133 31.8096ZM163.896 22.4755C164.782 22.4755 165.513 21.7517 165.513 20.8756C165.513 19.9994 164.782 19.2756 163.896 19.2756C163.011 19.2756 162.279 19.9994 162.279 20.8756C162.279 21.7517 163.011 22.4755 163.896 22.4755ZM176.985 31.2357L177.986 29.9786L180.18 33.2166L183.568 33.2547L179.834 27.6549L183.106 23.3885H179.68L176.985 26.8931V19.2363H173.866V33.2547H176.985V31.2357Z" fill="white"/>
</svg>
